<svg width="8" height="7" viewBox="0 0 8 7" fill="none" xmlns="http://www.w3.org/2000/svg">
<path d="M6.80665 0.333327H1.19332C0.97171 0.333006 0.754541 0.395451 0.566949 0.513433C0.379357 0.631415 0.229013 0.800111 0.133318 0.999994C0.0212967 1.23715 -0.0218494 1.50102 0.0087965 1.76151C0.0394424 2.022 0.142648 2.26864 0.306652 2.47333L3.11332 5.87333C3.22346 6.00041 3.35964 6.10234 3.51262 6.17219C3.6656 6.24205 3.83181 6.2782 3.99998 6.2782C4.16816 6.2782 4.33437 6.24205 4.48735 6.17219C4.64033 6.10234 4.77651 6.00041 4.88665 5.87333L7.69332 2.47333C7.85732 2.26864 7.96053 2.022 7.99117 1.76151C8.02182 1.50102 7.97867 1.23715 7.86665 0.999994C7.77096 0.800111 7.62061 0.631415 7.43302 0.513433C7.24543 0.395451 7.02826 0.333006 6.80665 0.333327Z" fill="#010101"/>
</svg>
