<svg width="16" height="16" viewBox="0 0 16 16" fill="none" xmlns="http://www.w3.org/2000/svg">
<path d="M1.88922 12.1616C1.88922 12.1638 1.88922 12.1678 1.88672 12.1734C1.88766 12.1697 1.88828 12.1656 1.88922 12.1616ZM13.7473 12.675C13.6445 12.6728 13.5429 12.6516 13.4477 12.6125L11.6733 11.9834L11.6602 11.9781C11.6215 11.962 11.5799 11.9539 11.538 11.9544C11.4993 11.9544 11.461 11.9614 11.4248 11.975C11.3817 11.9913 10.9933 12.1372 10.5858 12.2491C10.3648 12.3097 9.59578 12.5075 8.97859 12.5075C7.40109 12.5075 5.92609 11.9013 4.82578 10.8003C4.28825 10.2661 3.86203 9.63054 3.57178 8.93048C3.28153 8.23041 3.13302 7.47973 3.13484 6.72188C3.13483 6.327 3.17737 5.93327 3.26172 5.5475C3.53641 4.27813 4.26391 3.12344 5.31016 2.2975C6.38339 1.45564 7.70832 0.9987 9.07234 1C10.7039 1 12.2242 1.625 13.3536 2.75563C14.4211 3.82657 15.0061 5.23469 15.0014 6.72032C15.0005 7.82424 14.6709 8.90289 14.0545 9.81875L14.0486 9.8275L14.0255 9.85875C14.0202 9.86594 14.0148 9.87282 14.0098 9.88L14.0052 9.88844C13.9927 9.90958 13.9815 9.93139 13.9714 9.95375L14.4633 11.7019C14.485 11.774 14.4968 11.8488 14.4983 11.9241C14.4984 12.0227 14.4791 12.1204 14.4414 12.2116C14.4037 12.3027 14.3484 12.3856 14.2786 12.4553C14.2089 12.5251 14.126 12.5804 14.0349 12.6181C13.9437 12.6558 13.846 12.6751 13.7473 12.675Z" fill="#B6B6CE"/>
<path d="M9.37095 13.2933C9.33866 13.2305 9.29323 13.1754 9.23775 13.1318C9.18226 13.0881 9.11802 13.0569 9.04939 13.0402C8.86876 12.9924 8.65814 13.0005 8.4972 12.9887C6.97762 12.883 5.54765 12.2308 4.47158 11.1527C3.51494 10.2014 2.89321 8.96512 2.70002 7.62991C2.65627 7.32553 2.65627 7.24991 2.65627 7.24991C2.65625 7.14835 2.6253 7.04921 2.56756 6.96568C2.50981 6.88214 2.428 6.81817 2.333 6.78228C2.238 6.74638 2.13433 6.74026 2.03577 6.76474C1.93721 6.78921 1.84844 6.84312 1.78127 6.91928C1.78127 6.91928 1.53502 7.18741 1.41877 7.45647C1.09273 8.20768 0.953687 9.02674 1.01356 9.84346C1.07342 10.6602 1.33042 11.4502 1.76252 12.1458C1.84377 12.2812 1.84377 12.3437 1.82564 12.4843C1.74033 12.9252 1.59095 13.703 1.51314 14.1065C1.48738 14.2373 1.49696 14.3726 1.5409 14.4985C1.58485 14.6244 1.66156 14.7363 1.76314 14.8227L1.77752 14.8349C1.91189 14.9416 2.07841 14.9998 2.25002 14.9999C2.34654 15 2.44212 14.981 2.53127 14.944L4.20345 14.2987C4.26103 14.2768 4.32463 14.2768 4.3822 14.2987C5.04064 14.5437 5.72595 14.6737 6.37533 14.6737C7.18444 14.6744 7.98375 14.4966 8.71627 14.153C8.88689 14.073 9.15377 13.9862 9.31002 13.8055C9.36915 13.7355 9.40644 13.6496 9.41727 13.5586C9.4281 13.4675 9.41199 13.3753 9.37095 13.2933Z" fill="#B6B6CE"/>
</svg>
