<svg width="24" height="24" viewBox="0 0 24 24" fill="none" xmlns="http://www.w3.org/2000/svg">
<path d="M2.83313 18.2423C2.83313 18.2456 2.83313 18.2517 2.82938 18.2602C2.83078 18.2545 2.83172 18.2484 2.83313 18.2423ZM20.6203 19.0125C20.466 19.0092 20.3136 18.9774 20.1708 18.9188L17.5092 17.9752L17.4895 17.9672C17.4315 17.943 17.3691 17.9309 17.3063 17.9316C17.2483 17.9316 17.1908 17.9421 17.1366 17.9625C17.0719 17.9869 16.4892 18.2058 15.878 18.3736C15.5466 18.4645 14.393 18.7613 13.4672 18.7613C11.1009 18.7613 8.88844 17.8519 7.23797 16.2005C6.43168 15.3991 5.79234 14.4458 5.35696 13.3957C4.92159 12.3456 4.69882 11.2196 4.70156 10.0828C4.70154 9.4905 4.76535 8.8999 4.89188 8.32125C5.30391 6.41719 6.39516 4.68516 7.96453 3.44625C9.57439 2.18346 11.5618 1.49805 13.6078 1.5C16.0552 1.5 18.3356 2.4375 20.0297 4.13344C21.6309 5.73985 22.5084 7.85204 22.5014 10.0805C22.5 11.7364 22.0056 13.3543 21.0811 14.7281L21.0722 14.7413L21.0375 14.7881C21.0295 14.7989 21.0216 14.8092 21.0141 14.82L21.007 14.8327C20.9884 14.8644 20.9715 14.8971 20.9564 14.9306L21.6942 17.5528C21.7268 17.661 21.7445 17.7731 21.7467 17.8861C21.7469 18.0341 21.7179 18.1806 21.6614 18.3174C21.6048 18.4541 21.5219 18.5784 21.4172 18.683C21.3126 18.7876 21.1883 18.8706 21.0516 18.9271C20.9148 18.9837 20.7683 19.0127 20.6203 19.0125Z" fill="#007EFF"/>
<path d="M14.0564 19.9401C14.008 19.8459 13.9398 19.7633 13.8566 19.6977C13.7734 19.6322 13.677 19.5854 13.5741 19.5605C13.3031 19.4887 12.9872 19.5009 12.7458 19.4831C10.4664 19.3246 8.32146 18.3464 6.70734 16.7292C5.27238 15.3023 4.3398 13.4478 4.05 11.445C3.98438 10.9884 3.98438 10.875 3.98438 10.875C3.98435 10.7227 3.93793 10.5739 3.85131 10.4486C3.76469 10.3233 3.64197 10.2274 3.49947 10.1735C3.35698 10.1197 3.20147 10.1105 3.05363 10.1472C2.90579 10.1839 2.77263 10.2648 2.67188 10.379C2.67188 10.379 2.3025 10.7812 2.12813 11.1848C1.63907 12.3116 1.43051 13.5402 1.52031 14.7653C1.61011 15.9904 1.99561 17.1754 2.64375 18.2189C2.76563 18.4219 2.76563 18.5156 2.73844 18.7265C2.61047 19.3879 2.38641 20.5547 2.26969 21.1598C2.23104 21.3561 2.24542 21.5591 2.31133 21.7479C2.37725 21.9368 2.49232 22.1046 2.64469 22.2342L2.66625 22.2525C2.86782 22.4126 3.1176 22.4998 3.375 22.5C3.51978 22.5001 3.66316 22.4716 3.79688 22.4161L6.30516 21.4481C6.39152 21.4153 6.48692 21.4153 6.57328 21.4481C7.56094 21.8156 8.58891 22.0106 9.56297 22.0106C10.7766 22.0117 11.9756 21.7451 13.0744 21.2297C13.3303 21.1097 13.7306 20.9794 13.965 20.7084C14.0537 20.6033 14.1096 20.4745 14.1259 20.338C14.1421 20.2014 14.118 20.0631 14.0564 19.9401Z" fill="#007EFF"/>
</svg>
