<svg width="20" height="20" viewBox="0 0 20 20" fill="none" xmlns="http://www.w3.org/2000/svg">
<path d="M17.5 5.00002H14.1666V2.50002C14.1666 2.27901 14.0788 2.06704 13.9225 1.91076C13.7663 1.75448 13.5543 1.66669 13.3333 1.66669H6.66663C6.44561 1.66669 6.23365 1.75448 6.07737 1.91076C5.92109 2.06704 5.83329 2.27901 5.83329 2.50002V8.33335H2.49996C2.27895 8.33335 2.06698 8.42115 1.9107 8.57743C1.75442 8.73371 1.66663 8.94567 1.66663 9.16669V15.8334C1.66663 16.0544 1.75442 16.2663 1.9107 16.4226C2.06698 16.5789 2.27895 16.6667 2.49996 16.6667H17.5C17.721 16.6667 17.9329 16.5789 18.0892 16.4226C18.2455 16.2663 18.3333 16.0544 18.3333 15.8334V5.83335C18.3333 5.61234 18.2455 5.40038 18.0892 5.2441C17.9329 5.08782 17.721 5.00002 17.5 5.00002ZM4.99996 15H3.33329V13.3334H4.99996V15ZM4.99996 11.6667H3.33329V10H4.99996V11.6667ZM9.16663 15H7.49996V13.3334H9.16663V15ZM9.16663 11.6667H7.49996V10H9.16663V11.6667ZM9.16663 8.33335H7.49996V6.66669H9.16663V8.33335ZM9.16663 5.00002H7.49996V3.33335H9.16663V5.00002ZM12.5 15H10.8333V13.3334H12.5V15ZM12.5 11.6667H10.8333V10H12.5V11.6667ZM12.5 8.33335H10.8333V6.66669H12.5V8.33335ZM12.5 5.00002H10.8333V3.33335H12.5V5.00002ZM16.6666 15H15V13.3334H16.6666V15ZM16.6666 11.6667H15V10H16.6666V11.6667ZM16.6666 8.33335H15V6.66669H16.6666V8.33335Z" fill="#B6B6CE"/>
</svg>
