<svg width="72" height="72" viewBox="0 0 72 72" fill="none" xmlns="http://www.w3.org/2000/svg">
<path d="M35.9999 0.799948C42.9618 0.799948 49.7674 2.86439 55.556 6.73222C61.3446 10.6 65.8563 16.0975 68.5205 22.5295C71.1847 28.9615 71.8818 36.039 70.5236 42.8671C69.1654 49.6953 65.8129 55.9673 60.8901 60.8901C55.9673 65.8129 49.6953 69.1654 42.8671 70.5236C36.039 71.8818 28.9615 71.1847 22.5295 68.5205C16.0975 65.8563 10.6 61.3446 6.73222 55.556C2.86439 49.7674 0.799948 42.9618 0.799948 35.9999C0.786749 31.3737 1.68821 26.7905 3.4525 22.5139C5.21679 18.2373 7.8091 14.3516 11.0804 11.0804C14.3516 7.8091 18.2373 5.21679 22.5139 3.4525C26.7905 1.68821 31.3737 0.786749 35.9999 0.799948Z" fill="#3BB54A"/>
<path d="M55.5 26.2997L30.5 51.2997L16.5 37.3997L22.2 31.7997L30.5 39.9997L49.8 20.6997L55.5 26.2997Z" fill="#D4E1F4"/>
</svg>
