<svg width="18" height="18" viewBox="0 0 18 18" fill="none" xmlns="http://www.w3.org/2000/svg">
<path d="M17.0941 7.72389C16.9636 6.98395 16.5748 6.31039 15.9992 5.82741C15.6726 5.55338 15.4519 5.17129 15.3779 4.75147C15.2474 4.01153 14.8585 3.33798 14.283 2.85499C13.7073 2.37201 12.9766 2.10598 12.2252 2.10598C11.7989 2.10598 11.3842 1.95505 11.0577 1.68102C10.482 1.19804 9.75127 0.932007 8.99987 0.932007C8.24846 0.932007 7.51772 1.19804 6.94208 1.68102C6.61551 1.95505 6.20094 2.10598 5.77455 2.10598C5.02315 2.10598 4.2924 2.37201 3.71676 2.85499C3.14112 3.33798 2.75234 4.01153 2.62184 4.75147C2.54781 5.17129 2.32727 5.55338 2.00058 5.82741C1.42494 6.31039 1.03616 6.98395 0.905657 7.72389C0.775149 8.46383 0.910194 9.2298 1.28596 9.88042C1.49909 10.2496 1.57575 10.6841 1.50172 11.1039C1.37121 11.8439 1.50625 12.6099 1.88201 13.2605C2.25766 13.9112 2.85348 14.4111 3.55951 14.6681C3.9601 14.8139 4.29813 15.0975 4.51127 15.4667C4.88691 16.1174 5.48273 16.6173 6.18876 16.8743C6.89479 17.1313 7.67258 17.1313 8.37861 16.8743C8.77921 16.7285 9.2204 16.7285 9.621 16.8743C9.97408 17.0028 10.3449 17.0671 10.7159 17.0671C11.0869 17.0671 11.4578 17.0028 11.8109 16.8743C12.5169 16.6174 13.1127 16.1174 13.4883 15.4667C13.7015 15.0975 14.0395 14.8139 14.4401 14.6681C15.1461 14.4112 15.742 13.9112 16.1176 13.2605C16.4932 12.6097 16.6283 11.8439 16.4979 11.1039C16.4239 10.6841 16.5005 10.2496 16.7137 9.88042C17.0893 9.22968 17.2243 8.46383 17.094 7.72389H17.0941ZM12.2829 7.99684L8.84763 11.3911C8.69157 11.5453 8.47987 11.6319 8.25921 11.6319C8.03855 11.6319 7.82685 11.5453 7.67079 11.3911L6.05503 9.79457C5.73002 9.4735 5.73002 8.95278 6.05503 8.63171C6.38004 8.31063 6.90697 8.31063 7.23199 8.63171L8.25933 9.64675L11.1061 6.83386C11.4312 6.51278 11.9581 6.51278 12.2831 6.83386C12.6081 7.15493 12.6081 7.67565 12.2831 7.99672L12.2829 7.99684Z" fill="#0076F7"/>
</svg>
