<svg width="17" height="25" viewBox="0 0 17 25" fill="none" xmlns="http://www.w3.org/2000/svg">
<path d="M8.4 11.9C7.60435 11.9 6.84129 11.5839 6.27868 11.0213C5.71607 10.4587 5.4 9.69565 5.4 8.9C5.4 8.10435 5.71607 7.34129 6.27868 6.77868C6.84129 6.21607 7.60435 5.9 8.4 5.9C9.19565 5.9 9.95871 6.21607 10.5213 6.77868C11.0839 7.34129 11.4 8.10435 11.4 8.9C11.4 9.29397 11.3224 9.68407 11.1716 10.0481C11.0209 10.412 10.7999 10.7427 10.5213 11.0213C10.2427 11.2999 9.91203 11.5209 9.54805 11.6716C9.18407 11.8224 8.79397 11.9 8.4 11.9ZM8.4 0.5C6.17218 0.5 4.03561 1.385 2.4603 2.9603C0.884997 4.53561 0 6.67218 0 8.9C0 15.2 8.4 24.5 8.4 24.5C8.4 24.5 16.8 15.2 16.8 8.9C16.8 6.67218 15.915 4.53561 14.3397 2.9603C12.7644 1.385 10.6278 0.5 8.4 0.5Z" fill="#007BFF"/>
</svg>
