<svg width="16" height="16" viewBox="0 0 16 16" fill="none" xmlns="http://www.w3.org/2000/svg">
<path d="M10 12V12.5C10 13.0304 9.78929 13.5391 9.41422 13.9142C9.03914 14.2893 8.53043 14.5 8 14.5C7.46957 14.5 6.96086 14.2893 6.58579 13.9142C6.21072 13.5391 6 13.0304 6 12.5V12M13.365 10.9822C12.5625 10 11.9959 9.5 11.9959 6.79219C11.9959 4.3125 10.7297 3.42906 9.6875 3C9.54906 2.94312 9.41875 2.8125 9.37656 2.67031C9.19375 2.04812 8.68125 1.5 8 1.5C7.31875 1.5 6.80594 2.04844 6.625 2.67094C6.58281 2.81469 6.4525 2.94312 6.31406 3C5.27063 3.42969 4.00563 4.31 4.00563 6.79219C4.00406 9.5 3.4375 10 2.635 10.9822C2.3025 11.3891 2.59375 12 3.17531 12H12.8278C13.4063 12 13.6956 11.3872 13.365 10.9822Z" stroke="black" stroke-linecap="round" stroke-linejoin="round"/>
</svg>
