<svg width="11" height="15" viewBox="0 0 11 15" fill="none" xmlns="http://www.w3.org/2000/svg">
<path d="M2.99142 0.224854C3.82888 0.224854 4.31536 0.224854 4.45083 0.224854C4.45083 0.372641 4.45083 1.0069 4.45083 2.12763C4.45083 3.24836 4.45083 3.87646 4.45083 4.01194L8.88449 2.40474C8.88449 2.83579 8.88449 3.22373 8.88449 3.56857L4.45083 5.17577C4.45083 5.22503 4.45083 5.32972 4.45083 5.48982C4.45083 5.64993 4.45083 5.75461 4.45083 5.80387L6.85239 4.95409L8.88449 4.19668C8.88449 4.27057 8.88449 4.45838 8.88449 4.76012C8.88449 5.06186 8.88449 5.24351 8.88449 5.30509C8.88449 5.35435 8.87217 5.37898 8.84754 5.37898L4.58015 6.91229C4.53088 6.93692 4.48778 6.96155 4.45083 6.98619C4.45083 7.73744 4.45083 8.77504 4.45083 10.099C4.45083 11.4229 4.45083 12.4605 4.45083 13.2118C4.45083 13.2118 4.45083 13.2179 4.45083 13.2303C4.45083 13.2426 4.45083 13.2487 4.45083 13.2487C5.57156 13.1133 6.56297 12.6884 7.42507 11.974C8.37339 11.1982 9.00764 10.2314 9.32785 9.0737C9.46333 8.54412 9.53106 8.01455 9.53106 7.48497C9.53106 7.48497 10.0237 7.48497 11.0089 7.48497C11.0089 8.67959 10.7195 9.80648 10.1407 10.8656C9.73427 11.6785 9.18006 12.3805 8.47807 12.9716C7.82534 13.5505 7.09255 13.9938 6.27971 14.3017C5.22056 14.7081 4.12446 14.8498 2.99142 14.7266C2.99142 13.9261 2.99142 12.7253 2.99142 11.1243C2.99142 9.52322 2.99142 8.31628 2.99142 7.50344C2.99142 7.50344 2.91136 7.53424 2.75126 7.59581L0.220379 8.50102C0.220379 8.13154 0.220379 7.7436 0.220379 7.33718L2.99142 6.33961C2.99142 6.26572 2.99142 6.05019 2.99142 5.69303C2.85594 5.75461 2.67429 5.82851 2.44645 5.91472C2.2186 6.00093 2.07389 6.05019 2.01232 6.0625L0.552904 6.59824C0.552904 6.59824 0.512876 6.61055 0.432826 6.63519C0.352775 6.65982 0.28196 6.67829 0.220379 6.69061C0.220379 6.09945 0.220379 5.71151 0.220379 5.52677L2.99142 4.54767C2.99142 4.00578 2.99142 3.28531 2.99142 2.38626C2.99142 1.48722 2.99142 0.766747 2.99142 0.224854Z" fill="black"/>
</svg>
