<svg width="32" height="24" viewBox="0 0 32 24" fill="none" xmlns="http://www.w3.org/2000/svg">
<g clip-path="url(#clip0_109_1396)">
<path d="M32 20C32 20.943 31.6254 21.8474 30.9586 22.5142C30.2918 23.181 29.3874 23.5556 28.4444 23.5556H3.55556C2.61256 23.5556 1.70819 23.181 1.0414 22.5142C0.374602 21.8474 0 20.943 0 20V16.4445H32V20Z" fill="#CE2028"/>
<path d="M0 7.55554H32V16.4444H0V7.55554Z" fill="#22408C"/>
<path d="M28.4444 0.444458H3.55556C2.61256 0.444458 1.70819 0.81906 1.0414 1.48586C0.374602 2.15265 0 3.05702 0 4.00001L0 7.55557H32V4.00001C32 3.05702 31.6254 2.15265 30.9586 1.48586C30.2918 0.81906 29.3874 0.444458 28.4444 0.444458Z" fill="#EEEEEE"/>
</g>
<defs>
<clipPath id="clip0_109_1396">
<rect width="32" height="24" fill="white"/>
</clipPath>
</defs>
</svg>
