<svg width="30" height="22" viewBox="0 0 30 22" fill="none" xmlns="http://www.w3.org/2000/svg">
<g clip-path="url(#clip0_168_2463)">
<path d="M30 18.5C30 19.3841 29.6488 20.2319 29.0237 20.857C28.3986 21.4822 27.5507 21.8334 26.6667 21.8334H3.33333C2.44928 21.8334 1.60143 21.4822 0.976311 20.857C0.35119 20.2319 0 19.3841 0 18.5V3.50002C0 2.61597 0.35119 1.76812 0.976311 1.143C1.60143 0.517876 2.44928 0.166687 3.33333 0.166687H26.6667C27.5507 0.166687 28.3986 0.517876 29.0237 1.143C29.6488 1.76812 30 2.61597 30 3.50002V18.5Z" fill="#E30917"/>
<path d="M13.3334 16C12.0073 16 10.7355 15.4732 9.79782 14.5355C8.86014 13.5978 8.33335 12.3261 8.33335 11C8.33335 9.67391 8.86014 8.40215 9.79782 7.46446C10.7355 6.52678 12.0073 6 13.3334 6C14.425 6 15.4334 6.35416 16.2559 6.94833C15.6824 6.29603 14.9765 5.77348 14.1851 5.41553C13.3938 5.05758 12.5352 4.87245 11.6667 4.8725C10.0416 4.8725 8.48302 5.51807 7.33389 6.6672C6.18476 7.81633 5.53918 9.37488 5.53918 11C5.53908 11.8047 5.69749 12.6016 6.00537 13.3451C6.31326 14.0887 6.76459 14.7643 7.33359 15.3333C7.9026 15.9024 8.57812 16.3538 9.3216 16.6618C10.0651 16.9698 10.8619 17.1283 11.6667 17.1283C13.4959 17.1283 15.1334 16.3225 16.2559 15.0517C15.4063 15.6686 14.3832 16.0006 13.3334 16ZM16.5942 11.1917L18.6275 11.66L18.8109 13.7375L19.8842 11.9492L21.9175 12.4167L20.5475 10.8433L21.62 9.05416L19.7009 9.87083L18.3309 8.29666L18.5142 10.375L16.5942 11.1917Z" fill="#EEEEEE"/>
</g>
<defs>
<clipPath id="clip0_168_2463">
<rect width="30" height="22" fill="white"/>
</clipPath>
</defs>
</svg>
