<svg width="32" height="20" viewBox="0 0 32 20" fill="none" xmlns="http://www.w3.org/2000/svg">
<path d="M11.6738 17.6619H20.3261V2.11512H11.6738V17.6619Z" fill="#FF5F00"/>
<path d="M12.2232 9.88846C12.2232 13.0472 13.7064 15.849 15.9862 17.6619C14.3108 18.9803 12.1958 19.7769 9.88852 19.7769C4.42225 19.7769 0 15.3546 0 9.88846C0 4.42231 4.42225 6.10352e-05 9.8884 6.10352e-05C12.1957 6.10352e-05 14.3106 0.796598 15.9862 2.11515C13.7064 3.90054 12.2232 6.72971 12.2232 9.88846Z" fill="#EB001B"/>
<path d="M31.9999 9.88846C31.9999 4.42243 27.5776 6.10352e-05 22.1115 6.10352e-05C19.8042 6.10352e-05 17.6892 0.796598 16.0137 2.11515C18.321 3.92794 19.7768 6.72971 19.7768 9.88846C19.7768 13.0472 18.2935 15.849 16.0137 17.6619C17.6891 18.9803 19.8042 19.7769 22.1115 19.7769C27.5776 19.7769 31.9999 15.3271 31.9999 9.88846Z" fill="#F79E1B"/>
</svg>
