<svg width="365" height="216" viewBox="0 0 365 216" fill="none" xmlns="http://www.w3.org/2000/svg">
<path d="M270 53C250.668 23.828 214.55 0 176.932 0C120.992 0 74.9882 42.5372 69.4986 97.0302C66.3591 96.5215 63.1395 96.2531 59.8565 96.2531C26.7988 96.2531 0 123.052 0 156.11C0 178.734 18.4799 202.823 37 213C58.9704 188.321 128 151 270 53Z" fill="url(#paint0_linear_1_16)"/>
<path d="M364.276 133.997C364.276 88.7263 327.577 52.0275 282.307 52.0275C278.075 52.0275 273.919 52.3488 269.86 52.9671C269.783 52.8379 269.704 52.6961 269.627 52.5673C200 93 158.618 131.01 126.262 216H282.383L282.331 215.951C327.59 215.938 364.276 179.259 364.276 133.997Z" fill="url(#paint1_linear_1_16)"/>
<path d="M182.01 117.649C179.321 116.954 180.071 116.045 179.765 113.244L178.601 85.2865L235.295 67.4197L240.626 70.4151L232.519 82.1496L182.01 117.649Z" fill="#C8DAEA"/>
<path d="M182.01 117.649C184.079 118.183 185.225 117.45 186.682 116.649C188.92 115.388 217.74 98.9275 217.74 98.9275L204.495 91.8282L189.256 96.7185L182.189 116.96L182.01 117.649Z" fill="#A9C9DD"/>
<path d="M188.84 96.9052L215.855 130.143C219.113 133.192 222.139 132.87 224.28 128.568L254.394 68.0872C257.216 62.8581 254.34 59.4673 250.258 60.1782L162.602 70.3408C156.585 71.1401 155.87 74.192 159.944 76.6421L178.767 88.3452L233.852 70.725C236.415 69.9159 238.288 71.2087 236.241 72.2982L188.84 96.9052Z" fill="url(#paint2_linear_1_16)"/>
<defs>
<linearGradient id="paint0_linear_1_16" x1="89.3587" y1="33.8346" x2="150.463" y2="139.671" gradientUnits="userSpaceOnUse">
<stop stop-color="#B9E5FB"/>
<stop offset="1" stop-color="#00B6F1"/>
</linearGradient>
<linearGradient id="paint1_linear_1_16" x1="203.105" y1="90.9733" x2="282.522" y2="228.527" gradientUnits="userSpaceOnUse">
<stop stop-color="#19BCF2"/>
<stop offset="1" stop-color="#007DAC"/>
</linearGradient>
<linearGradient id="paint2_linear_1_16" x1="212.508" y1="87.8335" x2="222.622" y2="119.869" gradientUnits="userSpaceOnUse">
<stop stop-color="#EFF7FC"/>
<stop offset="1" stop-color="white"/>
</linearGradient>
</defs>
</svg>
