<?xml version="1.0" encoding="utf-8"?><svg viewBox="0 0 72 72" xmlns="http://www.w3.org/2000/svg" xmlns:xlink="http://www.w3.org/1999/xlink"><style>:root>svg{display:none}:root>svg:target{display:block}</style><svg viewBox="0 0 14 14" id="add" xmlns="http://www.w3.org/2000/svg"><path d="M7 1.375v11.25M12.625 7H1.375"/></svg><svg viewBox="0 0 8 7" id="arrow" xmlns="http://www.w3.org/2000/svg"><path d="M6.807.333H1.193A1.173 1.173 0 00.133 1a1.4 1.4 0 00.174 1.473l2.806 3.4a1.173 1.173 0 001.774 0l2.806-3.4A1.4 1.4 0 007.867 1a1.173 1.173 0 00-1.06-.667z"/></svg><svg viewBox="0 0 16 16" id="chat" xmlns="http://www.w3.org/2000/svg"><path d="M1.89 12.162c0 .002 0 .006-.003.011l.002-.011zm11.857.513a.836.836 0 01-.3-.063l-1.774-.629-.013-.005a.322.322 0 00-.235-.003c-.043.016-.432.162-.84.274-.22.06-.99.258-1.606.258A5.826 5.826 0 013.572 8.93a5.73 5.73 0 01-.31-3.382 5.7 5.7 0 012.048-3.25A6.086 6.086 0 019.072 1c1.632 0 3.152.625 4.282 1.756A5.562 5.562 0 0115 6.72c0 1.104-.33 2.183-.946 3.099l-.006.008-.024.032-.015.021-.005.008a.67.67 0 00-.034.066l.492 1.748a.75.75 0 01-.716.973z"/><path d="M9.371 13.293a.49.49 0 00-.322-.253c-.18-.048-.39-.04-.552-.051a6.306 6.306 0 01-4.025-1.836A6.225 6.225 0 012.7 7.63c-.044-.304-.044-.38-.044-.38a.5.5 0 00-.875-.33s-.246.267-.362.536a5.065 5.065 0 00.344 4.69c.08.135.08.198.063.338l-.313 1.623a.75.75 0 00.25.716l.015.012a.76.76 0 00.753.109l1.672-.645a.251.251 0 01.18 0 5.777 5.777 0 001.992.375c.81 0 1.609-.177 2.341-.521.17-.08.438-.167.594-.348a.468.468 0 00.061-.512z"/></svg><svg viewBox="0 0 24 24" id="chatbubbles" xmlns="http://www.w3.org/2000/svg"><path d="M2.833 18.242c0 .004 0 .01-.004.018l.004-.018zm17.787.77a1.255 1.255 0 01-.45-.093l-2.66-.944-.02-.008a.482.482 0 00-.353-.005c-.065.025-.648.244-1.259.412-.331.09-1.485.387-2.41.387-2.367 0-4.58-.91-6.23-2.56a8.597 8.597 0 01-2.536-6.118c0-.592.063-1.183.19-1.762.412-1.904 1.503-3.636 3.073-4.875A9.13 9.13 0 0113.608 1.5c2.447 0 4.728.938 6.422 2.633 1.6 1.607 2.478 3.719 2.471 5.948a8.337 8.337 0 01-1.42 4.647l-.009.013-.034.047c-.009.01-.016.021-.024.032l-.007.013a1.03 1.03 0 00-.05.098l.737 2.622a1.126 1.126 0 01-1.074 1.46z"/><path d="M14.056 19.94a.739.739 0 00-.482-.38c-.27-.071-.587-.06-.828-.077a9.458 9.458 0 01-6.039-2.754 9.338 9.338 0 01-2.657-5.284c-.066-.457-.066-.57-.066-.57a.75.75 0 00-1.312-.496s-.37.402-.544.806a7.598 7.598 0 00.516 7.034c.122.203.122.297.094.508-.128.66-.352 1.828-.468 2.433a1.125 1.125 0 00.375 1.074l.021.018c.202.16.452.248.709.248.145 0 .288-.028.422-.084l2.508-.968a.378.378 0 01.268 0 8.665 8.665 0 002.99.563 8.251 8.251 0 003.511-.781c.256-.12.657-.25.891-.522a.704.704 0 00.091-.768z"/></svg><svg viewBox="0 0 12 10" id="check" xmlns="http://www.w3.org/2000/svg"><path d="M11 1L4 9 1 6"/></svg><svg viewBox="0 0 14 14" id="check-chat" xmlns="http://www.w3.org/2000/svg"><path d="M7 .5A6.507 6.507 0 00.5 7c0 3.584 2.916 6.5 6.5 6.5s6.5-2.916 6.5-6.5S10.584.5 7 .5zm3.383 4.322l-4.2 5a.5.5 0 01-.375.178h-.009a.5.5 0 01-.371-.166l-1.8-2a.5.5 0 11.743-.668l1.415 1.572 3.831-4.56a.5.5 0 01.766.644z"/></svg><svg viewBox="0 0 13 10" id="check-load" xmlns="http://www.w3.org/2000/svg"><path d="M10.455.455A1.125 1.125 0 0112.06 2.03L6.075 9.515a1.125 1.125 0 01-1.62.03L.486 5.576a1.125 1.125 0 111.59-1.59l3.141 3.14 5.21-6.638.028-.033z"/></svg><svg viewBox="0 0 12 10" id="check-mes" xmlns="http://www.w3.org/2000/svg"><path d="M10.74 1L3.58 8.879.984 6.42"/></svg><svg viewBox="0 0 12 10" id="check-mes2" xmlns="http://www.w3.org/2000/svg"><path d="M10.74 1L3.58 8.88.983 6.42"/></svg><svg viewBox="0 0 16 16" id="checkmark-circle" xmlns="http://www.w3.org/2000/svg"><path d="M8 1.5A6.507 6.507 0 001.5 8c0 3.584 2.916 6.5 6.5 6.5s6.5-2.916 6.5-6.5S11.584 1.5 8 1.5zm3.383 4.322l-4.2 5a.501.501 0 01-.375.178h-.009a.5.5 0 01-.371-.166l-1.8-2a.5.5 0 11.743-.668l1.415 1.572 3.831-4.56a.5.5 0 01.766.644z"/></svg><svg viewBox="0 0 20 20" id="city" xmlns="http://www.w3.org/2000/svg"><path d="M17.5 5h-3.333V2.5a.833.833 0 00-.834-.833H6.667a.833.833 0 00-.834.833v5.833H2.5a.833.833 0 00-.833.834v6.666a.833.833 0 00.833.834h15a.833.833 0 00.833-.834v-10A.833.833 0 0017.5 5zM5 15H3.333v-1.667H5V15zm0-3.333H3.333V10H5v1.667zM9.167 15H7.5v-1.667h1.667V15zm0-3.333H7.5V10h1.667v1.667zm0-3.334H7.5V6.667h1.667v1.666zm0-3.333H7.5V3.333h1.667V5zM12.5 15h-1.667v-1.667H12.5V15zm0-3.333h-1.667V10H12.5v1.667zm0-3.334h-1.667V6.667H12.5v1.666zM12.5 5h-1.667V3.333H12.5V5zm4.167 10H15v-1.667h1.667V15zm0-3.333H15V10h1.667v1.667zm0-3.334H15V6.667h1.667v1.666z"/></svg><svg viewBox="0 0 20 20" id="clock" xmlns="http://www.w3.org/2000/svg"><path d="M10 0a10 10 0 100 20 10 10 0 000-20zm4.2 14.2L9 11V5h1.5v5.2l4.5 2.7-.8 1.3z"/></svg><svg viewBox="0 0 14 14" id="close" xmlns="http://www.w3.org/2000/svg"><path d="M7 .5A6.507 6.507 0 00.5 7c0 3.584 2.916 6.5 6.5 6.5s6.5-2.916 6.5-6.5S10.584.5 7 .5zm2.353 8.147a.5.5 0 11-.706.706L7 7.707 5.353 9.353a.5.5 0 01-.706-.706L6.293 7 4.647 5.353a.5.5 0 01.706-.706L7 6.293l1.647-1.646a.5.5 0 01.706.706L7.707 7l1.646 1.647z"/></svg><svg viewBox="0 0 16 16" id="close-circle" xmlns="http://www.w3.org/2000/svg"><path d="M8 1.5A6.507 6.507 0 001.5 8c0 3.584 2.916 6.5 6.5 6.5s6.5-2.916 6.5-6.5S11.584 1.5 8 1.5zm2.353 8.147a.5.5 0 11-.706.706L8 8.707l-1.647 1.646a.5.5 0 01-.706-.706L7.293 8 5.647 6.353a.5.5 0 01.706-.706L8 7.293l1.647-1.646a.5.5 0 01.706.706L8.707 8l1.646 1.647z"/></svg><svg viewBox="0 0 24 24" id="copy" xmlns="http://www.w3.org/2000/svg"><path d="M19.125 22.5h-10.5a3.375 3.375 0 01-3.375-3.375v-10.5A3.375 3.375 0 018.625 5.25h10.5A3.375 3.375 0 0122.5 8.625v10.5a3.375 3.375 0 01-3.375 3.375z"/><path d="M7.5 3.75h11.057a3.381 3.381 0 00-3.182-2.25h-10.5A3.375 3.375 0 001.5 4.875v10.5a3.38 3.38 0 002.25 3.182V7.5A3.75 3.75 0 017.5 3.75z"/></svg><svg viewBox="0 0 24 24" id="document" xmlns="http://www.w3.org/2000/svg"><path d="M20.063 10.5H13.5a2.25 2.25 0 01-2.25-2.25V1.687a.188.188 0 00-.188-.187H6.75a3 3 0 00-3 3v15a3 3 0 003 3h10.5a3 3 0 003-3v-8.813a.188.188 0 00-.188-.187z"/><path d="M19.65 8.84L12.91 2.1a.093.093 0 00-.144.014.094.094 0 00-.016.052V8.25a.75.75 0 00.75.75h6.085a.094.094 0 00.066-.16z"/></svg><svg viewBox="0 0 72 72" id="done" xmlns="http://www.w3.org/2000/svg"><path d="M36 .8A35.2 35.2 0 11.8 36 35.1 35.1 0 0136 .8z"/><path d="M55.5 26.3l-25 25-14-13.9 5.7-5.6 8.3 8.2 19.3-19.3 5.7 5.6z"/></svg><svg viewBox="0 0 18 18" id="guarantee" xmlns="http://www.w3.org/2000/svg"><path d="M17.094 7.724A3.207 3.207 0 0016 5.827a1.819 1.819 0 01-.621-1.076 3.207 3.207 0 00-3.153-2.645c-.426 0-.84-.15-1.167-.425a3.206 3.206 0 00-4.116 0 1.82 1.82 0 01-1.167.425 3.207 3.207 0 00-3.153 2.645c-.074.42-.295.802-.621 1.076a3.206 3.206 0 00-.715 4.053c.213.37.29.804.216 1.224a3.206 3.206 0 002.058 3.564c.4.146.738.43.951.799a3.206 3.206 0 003.868 1.407 1.82 1.82 0 011.242 0 3.202 3.202 0 003.867-1.407 1.82 1.82 0 01.952-.799 3.206 3.206 0 002.058-3.564c-.074-.42.002-.854.216-1.224a3.21 3.21 0 00.38-2.156zm-4.811.273L8.848 11.39a.837.837 0 01-1.177 0L6.055 9.795a.815.815 0 010-1.163.84.84 0 011.177 0l1.027 1.015 2.847-2.813a.84.84 0 011.177 0 .815.815 0 010 1.163z"/></svg><svg viewBox="0 0 24 24" id="help" xmlns="http://www.w3.org/2000/svg"><path d="M7.5 7.688S7.567 6.14 9.072 4.9c.894-.736 1.967-.95 2.928-.963.878-.01 1.663.138 2.132.367.802.393 2.368 1.35 2.368 3.383 0 2.141-1.368 3.112-2.923 4.18-1.554 1.07-1.952 2.119-1.952 3.32M11.625 20.25a1.5 1.5 0 100-3 1.5 1.5 0 000 3z"/></svg><svg viewBox="0 0 16 8" id="link" xmlns="http://www.w3.org/2000/svg"><path d="M6.5 7h-2a3 3 0 110-6h2m3 0h2a3 3 0 010 6h-2M5.103 4h5.857"/></svg><svg viewBox="0 0 17 25" id="location" xmlns="http://www.w3.org/2000/svg"><path d="M8.4 11.9a3 3 0 110-6 3 3 0 010 6zM8.4.5A8.4 8.4 0 000 8.9c0 6.3 8.4 15.6 8.4 15.6s8.4-9.3 8.4-15.6A8.4 8.4 0 008.4.5z"/></svg><svg viewBox="0 0 16 16" id="mail" xmlns="http://www.w3.org/2000/svg"><path d="M13.25 2.5H2.75A1.752 1.752 0 001 4.25v7.5a1.752 1.752 0 001.75 1.75h10.5A1.752 1.752 0 0015 11.75v-7.5a1.752 1.752 0 00-1.75-1.75zm-.443 2.895l-4.5 3.5a.5.5 0 01-.614 0l-4.5-3.5a.5.5 0 11.614-.79L8 7.867l4.193-3.262a.5.5 0 01.614.79z"/></svg><svg viewBox="0 0 16 16" id="mail-2" xmlns="http://www.w3.org/2000/svg"><path d="M13.25 3H2.75c-.69 0-1.25.56-1.25 1.25v7.5c0 .69.56 1.25 1.25 1.25h10.5c.69 0 1.25-.56 1.25-1.25v-7.5c0-.69-.56-1.25-1.25-1.25z"/><path d="M3.5 5L8 8.5 12.5 5"/></svg><svg viewBox="0 0 16 16" id="mail2" xmlns="http://www.w3.org/2000/svg"><path d="M13.25 3H2.75c-.69 0-1.25.56-1.25 1.25v7.5c0 .69.56 1.25 1.25 1.25h10.5c.69 0 1.25-.56 1.25-1.25v-7.5c0-.69-.56-1.25-1.25-1.25z"/><path d="M3.5 5L8 8.5 12.5 5"/></svg><svg viewBox="0 0 16 16" id="mention" xmlns="http://www.w3.org/2000/svg"><path fill-rule="evenodd" clip-rule="evenodd" d="M4.75 2.37a6.5 6.5 0 006.5 11.26.75.75 0 01.75 1.298 8 8 0 113.994-7.273.754.754 0 01.006.095v1.5a2.75 2.75 0 01-5.072 1.475A4 4 0 1112 8v1.25a1.25 1.25 0 102.5 0V7.867a6.5 6.5 0 00-9.75-5.496V2.37zM10.5 8a2.5 2.5 0 10-5 0 2.5 2.5 0 005 0z"/></svg><svg viewBox="0 0 16 16" id="notification" xmlns="http://www.w3.org/2000/svg"><path d="M10 12v.5a2 2 0 01-4 0V12m7.365-1.018c-.803-.982-1.37-1.482-1.37-4.19 0-2.48-1.265-3.363-2.307-3.792a.557.557 0 01-.311-.33C9.194 2.048 8.68 1.5 8 1.5s-1.194.548-1.375 1.17a.551.551 0 01-.31.33c-1.044.43-2.31 1.31-2.31 3.792 0 2.708-.567 3.208-1.37 4.19-.332.407-.041 1.018.54 1.018h9.653c.578 0 .868-.613.537-1.018z"/></svg><svg viewBox="0 0 20 20" id="pdf" xmlns="http://www.w3.org/2000/svg"><path d="M4.667 10.667H4V9.333h.667a.667.667 0 110 1.334zm4.666 2.666v-4H10a.667.667 0 01.667.667v2.667a.667.667 0 01-.667.666h-.667z"/><path fill-rule="evenodd" clip-rule="evenodd" d="M1.333 2a2 2 0 012-2h10.943l4.39 4.39V18a2 2 0 01-2 2H3.334a2 2 0 01-2-2V2zm3.334 6h-2v6.667H4V12h.667a2 2 0 100-4zM10 8H8v6.667h2a2 2 0 002-2V10a2 2 0 00-2-2zm3.333 6.667V8h4v1.333h-2.666v1.334H16V12h-1.333v2.667h-1.334z"/></svg><svg viewBox="0 0 16 16" id="person" xmlns="http://www.w3.org/2000/svg"><path d="M10.75 4.5c-.123 1.652-1.375 3-2.75 3s-2.63-1.348-2.75-3c-.125-1.719 1.094-3 2.75-3s2.875 1.313 2.75 3zM8 9.5c-2.719 0-5.478 1.5-5.989 4.331-.061.341.132.669.489.669h11c.357 0 .55-.328.49-.669C13.477 11 10.718 9.5 8 9.5z"/></svg><svg viewBox="0 0 16 16" id="reload" xmlns="http://www.w3.org/2000/svg"><path d="M12.5 4.625l-.66-.768A5.982 5.982 0 007.5 2c-3.313 0-6 2.688-6 6a6.002 6.002 0 0011.658 2"/><path d="M14.5 3.044V6.5a.5.5 0 01-.5.5h-3.456a.5.5 0 01-.353-.853l3.456-3.456a.5.5 0 01.853.353z"/></svg><svg viewBox="0 0 16 16" id="send" xmlns="http://www.w3.org/2000/svg"><g clip-path="url(#bda)"><path fill-rule="evenodd" clip-rule="evenodd" d="M1.592 2.712L2.38 7.25h4.87a.75.75 0 110 1.5H2.38l-.79 4.538L13.93 8 1.592 2.712zM.989 8L.064 2.68a1.341 1.341 0 011.85-1.462l13.402 5.744a1.13 1.13 0 010 2.076L1.913 14.782a1.341 1.341 0 01-1.85-1.463L.99 8z"/></g><defs><clipPath id="bda"><path d="M0 0h16v16H0z"/></clipPath></defs></svg><svg viewBox="0 0 24 24" id="settings" xmlns="http://www.w3.org/2000/svg"><path d="M12 14.25a2.25 2.25 0 100-4.5 2.25 2.25 0 000 4.5z"/><path d="M22.05 14.063l-.023-.018-1.479-1.16a.755.755 0 01-.286-.625v-.542a.75.75 0 01.287-.62l1.479-1.16.021-.018a1.25 1.25 0 00.277-1.597L20.324 4.86a1.259 1.259 0 00-1.527-.54l-.017.006-1.739.7a.747.747 0 01-.678-.06 8.417 8.417 0 00-.469-.275.747.747 0 01-.383-.554l-.263-1.856-.005-.034a1.276 1.276 0 00-1.239-1.027H9.996a1.262 1.262 0 00-1.24 1.05l-.004.026-.262 1.86a.75.75 0 01-.38.553c-.16.086-.316.177-.47.273a.746.746 0 01-.676.06l-1.74-.704-.017-.006a1.26 1.26 0 00-1.522.531l-.006.01L1.674 8.34a1.252 1.252 0 00.276 1.598l.022.018 1.48 1.16a.755.755 0 01.286.625v.542a.75.75 0 01-.287.62l-1.479 1.16-.022.018a1.25 1.25 0 00-.276 1.597l2.002 3.464a1.258 1.258 0 001.527.54l.017-.006 1.737-.7a.747.747 0 01.678.06c.154.098.31.19.47.275a.747.747 0 01.383.554l.26 1.856.006.034a1.275 1.275 0 001.242 1.027h4.008a1.261 1.261 0 001.24-1.05l.004-.026.261-1.86a.75.75 0 01.384-.553 8.32 8.32 0 00.469-.273.747.747 0 01.676-.06l1.74.701.017.007a1.26 1.26 0 001.529-.542l2.002-3.464a1.251 1.251 0 00-.277-1.598zm-6.304-1.887a3.75 3.75 0 11-3.922-3.922 3.76 3.76 0 013.922 3.922z"/></svg><svg viewBox="0 0 16 16" id="smile" xmlns="http://www.w3.org/2000/svg"><path fill-rule="evenodd" clip-rule="evenodd" d="M1.5 8a6.5 6.5 0 1113 0 6.5 6.5 0 01-13 0zM8 0a8 8 0 100 16A8 8 0 008 0zM5 8a1 1 0 100-2 1 1 0 000 2zm7-1a1 1 0 11-2 0 1 1 0 012 0zM5.32 9.636a.75.75 0 011.038.175l.007.009c.103.118.22.222.35.31.264.178.683.37 1.285.37.602 0 1.02-.192 1.285-.371.13-.088.247-.192.35-.31l.007-.008a.75.75 0 111.222.87l-.614-.431c.614.43.614.431.613.431v.001l-.001.002-.002.003-.005.007-.014.019a1.984 1.984 0 01-.184.213c-.16.166-.338.316-.53.445-.63.418-1.37.638-2.127.629-.946 0-1.652-.308-2.126-.63a3.32 3.32 0 01-.715-.657l-.014-.02-.005-.006-.002-.003v-.002h-.001l.613-.432-.614.43a.75.75 0 01.183-1.044h.001z"/></svg><svg viewBox="0 0 16 16" id="smiley" xmlns="http://www.w3.org/2000/svg"><g clip-path="url(#bga)"><path fill-rule="evenodd" clip-rule="evenodd" d="M1.5 8a6.5 6.5 0 1113 0 6.5 6.5 0 01-13 0zM8 0a8 8 0 100 16A8 8 0 008 0zM5 8a1 1 0 100-2 1 1 0 000 2zm7-1a1 1 0 11-2 0 1 1 0 012 0zM5.32 9.636a.75.75 0 011.038.175l.007.009c.103.118.22.222.35.31.264.178.683.37 1.285.37.602 0 1.02-.192 1.285-.371.13-.088.247-.192.35-.31l.007-.008a.75.75 0 111.222.87l-.614-.431c.614.43.614.431.613.431v.001l-.001.002-.002.003-.005.007-.014.019a1.984 1.984 0 01-.184.213c-.16.166-.338.316-.53.445-.63.418-1.37.638-2.127.629-.946 0-1.652-.308-2.126-.63a3.32 3.32 0 01-.715-.657l-.014-.02-.005-.006-.002-.003v-.002h-.001l.613-.432-.614.43a.75.75 0 01.183-1.044h.001z"/></g><defs><clipPath id="bga"><path d="M0 0h16v16H0z"/></clipPath></defs></svg><svg viewBox="0 0 29 28" id="star" xmlns="http://www.w3.org/2000/svg"><path d="M14.5 0l4.48 9.217L29 10.695l-7.25 7.174L23.461 28 14.5 23.217 5.538 28 7.25 17.87 0 10.694l10.02-1.478L14.5 0z"/></svg><svg viewBox="0 0 29 28" id="star-active" xmlns="http://www.w3.org/2000/svg"><path d="M14.5 0l4.48 9.217L29 10.695l-7.25 7.174L23.461 28 14.5 23.217 5.538 28 7.25 17.87 0 10.694l10.02-1.478L14.5 0z"/></svg><svg viewBox="0 0 24 24" id="time" xmlns="http://www.w3.org/2000/svg"><path d="M12 2.25A9.75 9.75 0 002.25 12c0 5.384 4.365 9.75 9.75 9.75 5.384 0 9.75-4.366 9.75-9.75 0-5.385-4.366-9.75-9.75-9.75zm4.5 11.25H12a.75.75 0 01-.75-.75V6a.75.75 0 111.5 0v6h3.75a.75.75 0 110 1.5z"/></svg><svg viewBox="0 0 10 12" id="tip" xmlns="http://www.w3.org/2000/svg"><path d="M1 0h7.2c1.462 0 1.8 1.5.45 3S1.5 9.5 1 11C.501 12.5 1 0 1 0z"/></svg><svg viewBox="0 0 10 12" id="tip-blue" xmlns="http://www.w3.org/2000/svg"><path d="M9 0H1.8C.338 0 0 1.5 1.35 3S8.5 9.5 9 11c.499 1.5 0-11 0-11z"/></svg><svg viewBox="0 0 20 20" id="trash" xmlns="http://www.w3.org/2000/svg"><path d="M16.875 3.75h-3.75v-.938a1.563 1.563 0 00-1.563-1.562H8.438a1.562 1.562 0 00-1.563 1.563v.937h-3.75a.625.625 0 000 1.25h.664l.742 11.91c.056 1.05.86 1.84 1.875 1.84h7.188c1.02 0 1.808-.773 1.875-1.836L16.21 5h.664a.625.625 0 100-1.25zm-9.353 12.5H7.5a.625.625 0 01-.625-.603l-.313-8.75a.625.625 0 011.25-.044l.313 8.75a.625.625 0 01-.603.647zm3.103-.625a.624.624 0 11-1.25 0v-8.75a.625.625 0 011.25 0v8.75zm1.25-11.875h-3.75v-.938a.309.309 0 01.313-.312h3.124a.309.309 0 01.313.313v.937zm1.25 11.897a.626.626 0 01-.625.603h-.023a.625.625 0 01-.602-.647l.313-8.75a.625.625 0 111.25.044l-.313 8.75z"/></svg><svg viewBox="0 0 11 15" id="try" xmlns="http://www.w3.org/2000/svg"><path d="M2.991.225h1.46v3.787l4.433-1.607v1.164L4.451 5.176v.628l2.401-.85 2.032-.757v1.108c0 .05-.012.074-.036.074L4.58 6.912c-.05.025-.092.05-.13.074v6.263a5.624 5.624 0 002.975-1.275 5.597 5.597 0 001.903-2.9c.135-.53.203-1.06.203-1.589h1.478c0 1.195-.29 2.321-.868 3.38a6.566 6.566 0 01-1.663 2.107 7.05 7.05 0 01-2.198 1.33 6.954 6.954 0 01-3.289.425V7.504l-.24.092-2.53.905V7.337l2.77-.997v-.647a9.487 9.487 0 01-.545.222 3.909 3.909 0 01-.434.147l-1.46.536-.12.037c-.08.025-.15.043-.212.056V5.527l2.771-.98V.226z"/></svg></svg>